<?xml version="1.0" encoding="UTF-8" standalone="no"?>
<!-- Created with Inkscape (http://www.inkscape.org/) -->

<svg
   width="512"
   height="512"
   viewBox="0 0 512 512"
   version="1.1"
   id="svg5"
   inkscape:version="1.2.2 (b0a8486, 2022-12-01)"
   sodipodi:docname="logo-text-above-stylized.svg"
   xmlns:inkscape="http://www.inkscape.org/namespaces/inkscape"
   xmlns:sodipodi="http://sodipodi.sourceforge.net/DTD/sodipodi-0.dtd"
   xmlns="http://www.w3.org/2000/svg"
   xmlns:svg="http://www.w3.org/2000/svg">
  <sodipodi:namedview
     id="namedview7"
     pagecolor="#505050"
     bordercolor="#ffffff"
     borderopacity="1"
     inkscape:showpageshadow="0"
     inkscape:pageopacity="0"
     inkscape:pagecheckerboard="1"
     inkscape:deskcolor="#505050"
     inkscape:document-units="px"
     showgrid="false"
     inkscape:zoom="1.1030053"
     inkscape:cx="275.15733"
     inkscape:cy="244.33246"
     inkscape:window-width="1280"
     inkscape:window-height="755"
     inkscape:window-x="0"
     inkscape:window-y="23"
     inkscape:window-maximized="0"
     inkscape:current-layer="text185" />
  <defs
     id="defs2">
    <rect
       x="12.87092"
       y="486.75478"
       width="441.37603"
       height="81.992286"
       id="rect187" />
    <inkscape:perspective
       sodipodi:type="inkscape:persp3d"
       inkscape:vp_x="76.440039 : 231.94643 : 1"
       inkscape:vp_y="-154.50064 : 988.59355 : 0"
       inkscape:vp_z="495.45128 : 354.11945 : 1"
       inkscape:persp3d-origin="311.56205 : 216.55928 : 1"
       id="perspective117" />
  </defs>
  <g
     inkscape:label="Layer 1"
     inkscape:groupmode="layer"
     id="layer1">
    <g
       id="g388"
       transform="translate(0,82.765398)">
      <rect
         style="fill:#1a1a1a;stroke-width:1.38643"
         id="rect349-1"
         width="162.48123"
         height="133.72295"
         x="267.1095"
         y="65.490776"
         ry="0"
         rx="4.4816517e-17"
         transform="matrix(0.92908306,0.36987115,0.02688478,0.99963854,0,0)" />
      <rect
         style="fill:#000000;stroke-width:1.35242"
         id="rect349-0-8"
         width="160.5546"
         height="128.76965"
         x="101.60279"
         y="263.44336"
         ry="0"
         rx="4.4285103e-17"
         transform="matrix(0.92582885,-0.37794303,0.02749123,0.99962204,0,0)"
         inkscape:transform-center-x="-12.388307"
         inkscape:transform-center-y="-2.3272608"
         inkscape:label="rect349-0-8" />
      <rect
         style="fill:#333333;stroke-width:1.48113"
         id="rect568"
         width="60.170498"
         height="164.2937"
         x="-86.006638"
         y="349.78613"
         rx="0"
         transform="matrix(0.91757813,-0.39755549,0.92786017,0.37292829,0,0)"
         ry="0" />
      <rect
         style="fill:#4d4d4d;stroke-width:1.44988"
         id="rect568-7"
         width="58.929256"
         height="160.75073"
         x="-337.9458"
         y="62.582424"
         rx="0"
         transform="matrix(-0.91024677,-0.41406621,-0.92132731,0.38878784,0,0)"
         ry="0" />
      <path
         id="path1135"
         style="fill:#00ffff;stroke-width:0.889995"
         d="m 235.20583,139.7294 a 68.210187,86.179417 0 0 0 -47.71143,82.02256 68.210187,86.179417 0 0 0 68.20999,86.17905 68.210187,86.179417 0 0 0 68.20998,-86.17905 68.210187,86.179417 0 0 0 -31.82869,-72.87962 31.961548,23.325963 0 0 1 0.67183,4.73094 31.961548,23.325963 0 0 1 -31.96108,23.32576 31.961548,23.325963 0 0 1 -31.96109,-23.32576 31.961548,23.325963 0 0 1 6.37049,-13.87388 z" />
      <ellipse
         style="fill:#00ffff;stroke-width:1.45181"
         id="path967"
         cx="281.02115"
         cy="66.986671"
         rx="46.183453"
         ry="53.579472" />
      <path
         id="path1021"
         style="fill:#00ffff;stroke-width:1.36302"
         d="m 154.50205,9.4054649 a 141.0789,130.17498 52.100637 0 0 21.16164,121.6764751 141.0789,130.17498 52.100637 0 0 188.13607,42.36472 141.0789,130.17498 52.100637 0 0 49.1593,-70.93187 154.67129,152.33598 36.598927 0 1 -18.18922,14.75089 A 154.67129,152.33598 36.598927 0 1 180.51068,76.522286 154.67129,152.33598 36.598927 0 1 154.50205,9.4054649 Z" />
      <rect
         style="fill:#000000;stroke-width:1.39955"
         id="rect349-0"
         width="161.99947"
         height="136.6703"
         x="265.33612"
         y="391.7796"
         ry="0"
         rx="4.4683632e-17"
         transform="matrix(0.91757148,-0.39757084,0.02590203,0.99966449,0,0)"
         inkscape:transform-center-x="-12.388341"
         inkscape:transform-center-y="-2.4701215" />
      <rect
         style="fill:#1a1a1a;stroke-width:1.4023"
         id="rect349"
         width="164.10136"
         height="135.4528"
         x="103.64716"
         y="188.74823"
         ry="0"
         rx="4.5263386e-17"
         transform="matrix(0.92864969,0.3709579,0.02679358,0.99964099,0,0)" />
      <rect
         style="fill:#4d4d4d;stroke-width:1.25044"
         id="rect572"
         width="164.49471"
         height="59.57679"
         x="234.37421"
         y="179.17609"
         rx="5.9771118e-17"
         transform="matrix(0.92642902,0.37646949,-0.64641343,0.76298734,0,0)" />
      <rect
         style="fill:#333333;stroke-width:1.13625"
         id="rect776"
         width="158.03783"
         height="51.203686"
         x="162.35704"
         y="367.82117"
         rx="5.7424943e-17"
         transform="matrix(0.91410963,-0.40546712,0.29169489,0.95651142,0,0)" />
    </g>
    <g
       aria-label="Beyond the Box"
       transform="matrix(1.2950357,0,0,1.2681394,6.762313,-590.80054)"
       id="text185"
       style="white-space:pre;shape-inside:url(#rect187);display:inline">
      <path
         d="m 24.01692,513.40264 q 0.598958,0.0521 1.276041,0.0781 0.703125,0 2.083332,0 1.484375,0 2.734374,-0.0521 1.276041,-0.0521 2.447915,-0.18229 1.901041,-1.35417 2.864582,-3.04688 0.963541,-1.71874 0.963541,-3.77604 0,-3.30729 -2.109374,-5.20833 -2.109374,-1.92708 -5.781247,-1.92708 -0.807291,0 -1.874998,0.10417 -1.041666,0.10417 -2.369791,0.3125 -0.07813,3.48958 -0.15625,8.09895 -0.05208,4.60937 -0.07813,5.59896 z m 0.05208,17.10936 q 1.510416,0.44271 2.968748,0.67708 1.458332,0.20834 2.83854,0.20834 4.270831,0 6.614579,-2.08333 2.343749,-2.08334 2.343749,-5.80729 0,-3.95833 -2.630207,-5.85937 -2.630207,-1.92709 -8.072912,-1.92709 -0.885416,0 -1.796874,0.0261 -0.885416,0 -2.317707,0.0781 0,1.09375 -0.02604,3.22917 -0.02604,2.10937 -0.02604,3.09895 0,1.61458 0.02604,3.4375 0.02604,1.79687 0.07813,4.92187 z m -9.218745,1.69271 q 0.182292,0.026 0.338542,0.0521 0.182291,0 0.520833,0 3.463539,0 3.515623,-9.73958 0.02604,-2.44791 0.05208,-3.82812 l 0.104167,-7.10937 q 0.02604,-2.29166 0.02604,-4.45312 0.02604,-2.16146 0.02604,-4.6875 0,-2.23958 -0.833333,-3.09895 -0.833333,-0.85938 -2.968748,-0.85938 h -0.208333 v -1.82291 q 1.666665,0.1302 3.255206,0.18229 1.614582,0.0521 3.255206,0.0521 1.822916,0 4.479164,-0.10417 2.656249,-0.1302 3.46354,-0.1302 5.36458,0 8.463537,2.39583 3.124998,2.36979 3.124998,6.40624 0,2.83854 -1.536458,4.92188 -1.510415,2.05729 -5.026038,3.98437 4.58333,0.88541 6.848954,3.125 2.265624,2.23958 2.265624,5.91145 0,4.76562 -3.77604,7.68229 -3.776039,2.91666 -10.078119,2.91666 -1.145833,0 -4.296872,-0.13021 -3.15104,-0.1302 -5.208331,-0.1302 -0.859374,0 -2.395831,0.0521 -1.510416,0.0521 -3.411457,0.15625 z"
         style="font-size:53.3333px;font-family:'Iowan Old Style';-inkscape-font-specification:'Iowan Old Style, Normal'"
         id="path540" />
      <path
         d="M 70.266892,519.34013 H 57.558567 q -1.484375,0 -2.734374,0.0521 -1.249999,0.0521 -2.317707,0.15625 v 0.96354 q 0,5.10416 2.343749,7.89062 2.36979,2.78645 6.666663,2.78645 1.90104,0 3.749997,-0.62499 1.848958,-0.65105 3.93229,-2.00521 l 1.015624,1.66666 q -2.68229,2.1875 -5.36458,3.30729 -2.656249,1.11979 -5.260414,1.11979 -5.05208,0 -8.333328,-3.59374 -3.281248,-3.61979 -3.281248,-9.27083 0,-6.01562 3.437498,-10.10416 3.437498,-4.08854 8.385412,-4.08854 4.609372,0 7.343745,3.07291 2.734374,3.07292 3.124998,8.67187 z m -4.817705,-2.73437 q -0.78125,-3.20312 -2.36979,-4.89583 -1.588541,-1.71875 -3.802081,-1.71875 -2.499999,0 -4.296873,2.00521 -1.770832,2.00521 -2.317707,5.41666 5.156247,0 8.098954,-0.18229 2.968748,-0.18229 4.687497,-0.625 z"
         style="font-size:53.3333px;font-family:'Iowan Old Style';-inkscape-font-specification:'Iowan Old Style, Normal'"
         id="path542" />
      <path
         d="m 70.519407,508.3766 q 1.953124,0.13021 3.124999,0.18229 1.171874,0.0521 2.005207,0.0521 0.781249,0 1.979165,-0.0521 1.223958,-0.0521 3.385415,-0.20833 v 1.82291 H 80.33711 q -1.302083,0 -1.822916,0.36459 -0.520833,0.33854 -0.520833,1.22395 0,0.67709 2.291666,6.875 2.187498,5.88541 3.619789,9.92187 3.61979,-8.59375 5.078122,-12.39583 1.484374,-3.80208 1.484374,-4.55729 0,-0.7552 -0.572916,-1.09375 -0.572916,-0.33854 -1.874999,-0.33854 h -0.390625 v -1.82291 q 1.171875,0.10416 2.291666,0.15625 1.145832,0.0521 2.187498,0.0521 0.859375,0 1.979166,-0.0521 1.119791,-0.0521 2.395832,-0.15625 v 1.82291 H 96.2746 q -0.859374,0 -1.458332,0.39063 -0.572916,0.36458 -0.989583,1.19791 -0.05208,0.13021 -0.442708,1.01563 -2.760415,6.3802 -5.911455,13.38541 -1.562499,3.54166 -3.984372,9.24478 -5.20833,12.34374 -8.020829,12.34374 -1.041666,0 -1.74479,-0.67708 -0.703125,-0.67708 -0.703125,-1.71875 0,-1.43229 2.005207,-1.79687 0.807291,-0.13021 1.145833,-0.28646 1.458332,-0.57292 4.192706,-6.61458 0.755207,-1.69271 1.197916,-2.65625 -1.796874,-4.63541 -4.427081,-11.90103 -4.348956,-11.97916 -6.197913,-11.97916 -0.15625,0 -0.260417,0.026 -0.07813,0 -0.15625,0 z"
         style="font-size:53.3333px;font-family:'Iowan Old Style';-inkscape-font-specification:'Iowan Old Style, Normal'"
         id="path544" />
      <path
         d="m 113.77,499.15664 q -3.8667,0 -6.2329,2.95745 -2.33733,2.92727 -2.33733,7.90667 0,6.36758 2.59704,10.32091 2.6259,3.95333 6.81002,3.95333 4.03984,0 6.43488,-3.13852 2.4239,-3.13853 2.4239,-8.54041 0,-5.9149 -2.74131,-9.68717 -2.71247,-3.77226 -6.9543,-3.77226 z m 0.75026,-3.1687 q 6.08861,0 10.07074,4.28529 4.01099,4.25512 4.01099,10.56233 0,6.94097 -4.21298,11.70911 -4.21297,4.73796 -10.38816,4.73796 -6.17518,0 -10.15731,-4.34565 -3.953277,-4.34564 -3.953277,-10.98483 0,-6.63918 4.299547,-11.28661 4.3284,-4.6776 10.33045,-4.6776 z"
         style="fill:#00ffff;stroke-width:1.13317"
         id="path546" />
      <path
         d="m 138.71225,507.28285 -0.3125,4.375 q 2.94271,-2.13542 5.10417,-3.09896 2.18749,-0.96354 4.01041,-0.96354 3.82812,0 5.7552,2.16146 1.92709,2.16145 1.92709,6.48437 0,0.026 -0.026,2.29166 -0.026,2.26563 -0.026,4.53125 0,0.96354 -0.026,2.42187 -0.026,1.43229 -0.026,1.95313 0,2.91666 0.52083,3.80208 0.52084,0.88541 1.97917,0.88541 0.0781,0 0.28646,-0.026 0.23437,-0.026 0.33854,-0.026 v 1.82292 q -2.34375,-0.15625 -3.54167,-0.20834 -1.19791,-0.0521 -2.0052,-0.0521 -1.25,0 -2.70834,0.0781 -1.45833,0.0521 -2.96874,0.1823 l -0.026,-1.82292 h 0.39062 q 3.33333,0 3.38541,-6.09375 0.026,-0.33854 0.026,-0.52083 l 0.0521,-5.59895 v -0.9375 q 0,-4.81771 -1.11979,-6.38021 -1.11979,-1.58854 -3.85417,-1.58854 -1.51041,0 -3.35937,0.72917 -1.82291,0.70312 -3.8802,2.10937 -0.10417,2.70833 -0.15625,5.13021 -0.0521,2.39583 -0.0521,4.34895 v 3.59375 q 0,3.4375 0.49479,4.34896 0.52084,0.91145 2.00521,0.91145 0.10417,0 0.3125,-0.026 0.23438,-0.026 0.36458,-0.026 v 1.82292 q -2.23958,-0.15625 -3.54166,-0.20834 -1.27604,-0.0521 -2.10937,-0.0521 -0.78125,0 -2.0573,0.0521 -1.27604,0.0521 -3.5677,0.20834 l -0.026,-1.82292 h 0.49479 q 3.2552,0 3.28125,-6.32812 0,-0.9375 0.026,-1.45833 l 0.0521,-6.38021 v -2.57812 q 0,-2.55208 -0.39062,-3.33333 -0.39063,-0.80729 -1.43229,-0.80729 -0.20834,0 -0.54688,0.0521 -0.3125,0.0521 -0.67708,0.15625 l -0.3125,-1.61458 q 1.95312,-0.36459 3.90625,-0.98959 1.97916,-0.62499 4.03645,-1.51041 z"
         style="font-size:53.3333px;font-family:'Iowan Old Style';-inkscape-font-specification:'Iowan Old Style, Normal'"
         id="path548" />
      <path
         d="m 179.30328,512.51722 q -1.74479,-0.98958 -3.30729,-1.45833 -1.5625,-0.46875 -3.15104,-0.46875 -4.01041,0 -6.19791,2.5 -2.1875,2.5 -2.1875,7.05728 0,4.84375 2.13542,7.70833 2.16145,2.83854 5.7552,2.83854 1.43229,0 3.07292,-0.54687 1.66666,-0.54688 3.72395,-1.69271 z m 4.79167,-18.98436 -0.026,0.46875 q -0.3125,9.24478 -0.49479,17.86457 l -0.0521,4.0625 q -0.0521,1.43229 -0.10417,3.82812 -0.026,2.36979 -0.026,5.23437 v 1.01563 q 0,4.06249 0.28646,5.05208 0.28646,0.96354 1.11979,0.96354 0.49479,0 1.01562,-0.10417 0.54688,-0.10417 1.1198,-0.3125 l 0.41666,1.64063 q -1.82291,0.70312 -3.5677,1.04166 -1.7448,0.36458 -3.51563,0.36458 l -0.75521,-0.026 q -0.18229,-1.11979 -0.28645,-2.05729 -0.0781,-0.96354 -0.0781,-1.82291 -2.96875,1.90104 -4.89583,2.6302 -1.92708,0.72917 -3.75,0.72917 -4.55729,0 -7.42187,-3.4375 -2.86458,-3.46354 -2.86458,-8.98437 0,-6.14583 3.67187,-9.92187 3.67188,-3.77604 9.53125,-3.77604 1.32812,0 2.78645,0.26042 1.48438,0.23438 3.20313,0.75521 0,-0.23438 0.026,-0.70313 0.13021,-4.55729 0.13021,-8.20312 0,-1.64062 -0.52084,-2.3177 -0.49479,-0.67709 -1.66666,-0.67709 -0.26042,0 -0.65104,0.0781 -0.39063,0.0521 -1.06771,0.18229 l -0.3125,-1.69271 q 1.92708,-0.33854 4.08854,-0.85937 2.16146,-0.54688 4.66146,-1.27604 z"
         style="font-size:53.3333px;font-family:'Iowan Old Style';-inkscape-font-specification:'Iowan Old Style, Normal'"
         id="path550" />
      <path
         d="m 211.49076,503.40264 1.71875,0.52084 q -0.15625,1.43229 -0.26041,2.57812 -0.0781,1.11979 -0.10417,2.21354 h 1.84896 q 1.48437,0 3.02083,-0.026 1.53646,-0.0521 3.09895,-0.13021 l -0.62499,2.83854 q -1.66667,-0.13021 -3.15104,-0.15625 -1.45834,-0.0521 -2.91667,-0.0521 h -1.22396 q -0.15625,4.47916 -0.23437,6.87499 -0.0521,2.36979 -0.0521,3.93229 0,5.88542 0.8073,7.68229 0.80729,1.77083 2.89062,1.77083 0.85937,0 1.90104,-0.36458 1.06771,-0.36458 2.57812,-1.19792 l 0.85938,1.71875 q -2.5,1.51042 -4.53125,2.29167 -2.03125,0.7552 -3.54166,0.7552 -2.78646,0 -4.0625,-1.90104 -1.27604,-1.92708 -1.27604,-6.17187 0,-0.83333 0.10416,-5.93749 0.13021,-5.13021 0.13021,-9.40104 -0.23437,0 -0.67708,0.026 -2.16146,0.0781 -2.96875,0.0781 v -1.875 q 2.55208,-0.36459 4.21875,-1.875 1.66666,-1.53646 2.44791,-4.19271 z"
         style="font-size:53.3333px;font-family:'Iowan Old Style';-inkscape-font-specification:'Iowan Old Style, Normal'"
         id="path552" />
      <path
         d="m 232.16784,493.63702 q -0.10417,4.375 -0.18229,8.93229 -0.0781,4.55729 -0.10417,9.34895 2.91667,-2.21354 5.20833,-3.2552 2.29167,-1.06771 4.16667,-1.06771 3.82812,0 5.7552,2.16146 1.92708,2.16145 1.92708,6.48437 0,0.026 -0.026,2.29166 -0.026,2.26563 -0.026,4.53125 0,0.96354 -0.026,2.42187 -0.026,1.43229 -0.026,1.95313 0,2.91666 0.52083,3.80208 0.52083,0.88541 1.97917,0.88541 0.0781,0 0.28645,-0.026 0.23438,-0.026 0.36459,-0.026 v 1.82292 q -2.36979,-0.15625 -3.56771,-0.20834 -1.19791,-0.0521 -1.97916,-0.0521 -1.25,0 -2.70834,0.0781 -1.43229,0.0521 -2.99479,0.1823 l -0.026,-1.82292 h 0.39063 q 3.33333,0 3.41145,-6.09375 0,-0.33854 0,-0.52083 l 0.0521,-5.59895 v -1.06771 q 0,-4.73958 -1.11979,-6.27604 -1.1198,-1.5625 -3.85417,-1.5625 -1.48437,0 -3.30729,0.72917 -1.79687,0.72916 -4.24479,2.31771 l -0.13021,9.27082 q 0,0.78125 -0.026,2.00521 -0.026,1.22396 -0.026,1.69271 0,3.22916 0.52083,4.1927 0.52084,0.96354 2.00521,0.96354 0.10417,0 0.3125,-0.026 0.23438,-0.026 0.36458,-0.026 v 1.82292 q -1.64062,-0.13021 -3.09895,-0.1823 -1.43229,-0.0781 -2.5,-0.0781 -1.01563,0 -2.34375,0.0521 -1.32812,0.0521 -3.46354,0.18229 v -1.79687 q 0.15625,0 0.44271,0.026 0.28646,0.026 0.41667,0.026 1.79687,0 2.42187,-0.9375 0.625,-0.96354 0.625,-5.54687 v -1.92708 l 0.10417,-19.58332 v -4.47916 q 0,-1.1198 -0.4948,-1.66667 -0.46875,-0.57292 -1.43229,-0.57292 -0.36458,0 -1.19791,0.15625 -0.20834,0.0521 -0.28646,0.0521 l -0.39063,-1.69271 q 2.13542,-0.41667 4.19271,-0.96354 2.05729,-0.57292 4.11458,-1.32813 z"
         style="font-size:53.3333px;font-family:'Iowan Old Style';-inkscape-font-specification:'Iowan Old Style, Normal'"
         id="path554" />
      <path
         d="m 277.94907,519.34013 h -12.70833 q -1.48437,0 -2.73437,0.0521 -1.25,0.0521 -2.31771,0.15625 v 0.96354 q 0,5.10416 2.34375,7.89062 2.36979,2.78645 6.66666,2.78645 1.90104,0 3.75,-0.62499 1.84896,-0.65105 3.93229,-2.00521 l 1.01562,1.66666 q -2.68229,2.1875 -5.36458,3.30729 -2.65624,1.11979 -5.26041,1.11979 -5.05208,0 -8.33333,-3.59374 -3.28125,-3.61979 -3.28125,-9.27083 0,-6.01562 3.4375,-10.10416 3.4375,-4.08854 8.38541,-4.08854 4.60938,0 7.34375,3.07291 2.73437,3.07292 3.125,8.67187 z m -4.81771,-2.73437 q -0.78125,-3.20312 -2.36979,-4.89583 -1.58854,-1.71875 -3.80208,-1.71875 -2.5,0 -4.29687,2.00521 -1.77083,2.00521 -2.31771,5.41666 5.15625,0 8.09895,-0.18229 2.96875,-0.18229 4.6875,-0.625 z"
         style="font-size:53.3333px;font-family:'Iowan Old Style';-inkscape-font-specification:'Iowan Old Style, Normal'"
         id="path556" />
      <path
         d="m 305.70946,513.40264 q 0.59895,0.0521 1.27604,0.0781 0.70312,0 2.08333,0 1.48437,0 2.73437,-0.0521 1.27604,-0.0521 2.44792,-0.18229 1.90104,-1.35417 2.86458,-3.04688 0.96354,-1.71874 0.96354,-3.77604 0,-3.30729 -2.10937,-5.20833 -2.10938,-1.92708 -5.78125,-1.92708 -0.80729,0 -1.875,0.10417 -1.04167,0.10417 -2.36979,0.3125 -0.0781,3.48958 -0.15625,8.09895 -0.0521,4.60937 -0.0781,5.59896 z m 0.0521,17.10936 q 1.51041,0.44271 2.96875,0.67708 1.45833,0.20834 2.83854,0.20834 4.27083,0 6.61458,-2.08333 2.34375,-2.08334 2.34375,-5.80729 0,-3.95833 -2.63021,-5.85937 -2.63021,-1.92709 -8.07291,-1.92709 -0.88542,0 -1.79688,0.0261 -0.88541,0 -2.3177,0.0781 0,1.09375 -0.026,3.22917 -0.026,2.10937 -0.026,3.09895 0,1.61458 0.026,3.4375 0.026,1.79687 0.0781,4.92187 z m -9.21875,1.69271 q 0.1823,0.026 0.33855,0.0521 0.18229,0 0.52083,0 3.46354,0 3.51562,-9.73958 0.026,-2.44791 0.0521,-3.82812 l 0.10416,-7.10937 q 0.026,-2.29166 0.026,-4.45312 0.026,-2.16146 0.026,-4.6875 0,-2.23958 -0.83334,-3.09895 -0.83333,-0.85938 -2.96875,-0.85938 h -0.20833 v -1.82291 q 1.66667,0.1302 3.25521,0.18229 1.61458,0.0521 3.2552,0.0521 1.82292,0 4.47917,-0.10417 2.65625,-0.1302 3.46354,-0.1302 5.36458,0 8.46353,2.39583 3.125,2.36979 3.125,6.40624 0,2.83854 -1.53646,4.92188 -1.51041,2.05729 -5.02603,3.98437 4.58333,0.88541 6.84895,3.125 2.26562,2.23958 2.26562,5.91145 0,4.76562 -3.77604,7.68229 -3.77603,2.91666 -10.07811,2.91666 -1.14584,0 -4.29688,-0.13021 -3.15104,-0.1302 -5.20833,-0.1302 -0.85937,0 -2.39583,0.0521 -1.51041,0.0521 -3.41146,0.15625 z"
         style="font-size:53.3333px;font-family:'Iowan Old Style';-inkscape-font-specification:'Iowan Old Style, Normal'"
         id="path558" />
      <path
         d="m 342.03756,510.32972 q -3.48958,0 -5.625,2.55208 -2.10937,2.52604 -2.10937,6.82292 0,5.49479 2.34375,8.90624 2.36979,3.41146 6.14583,3.41146 3.64583,0 5.80728,-2.70833 2.1875,-2.70834 2.1875,-7.36979 0,-5.10416 -2.47395,-8.35937 -2.44792,-3.25521 -6.27604,-3.25521 z m 0.67708,-2.73437 q 5.49479,0 9.08854,3.69791 3.61979,3.67188 3.61979,9.11458 0,5.98958 -3.80208,10.10416 -3.80208,4.08854 -9.375,4.08854 -5.57291,0 -9.16666,-3.75 -3.56771,-3.74999 -3.56771,-9.47916 0,-5.72916 3.88021,-9.73958 3.90625,-4.03645 9.32291,-4.03645 z"
         style="font-size:53.3333px;font-family:'Iowan Old Style';-inkscape-font-specification:'Iowan Old Style, Normal'"
         id="path560" />
      <path
         d="m 357.58444,532.10054 q 0.10417,0 0.23438,0.026 0.15625,0 0.41666,0 2.44792,0 8.80208,-8.07291 1.43229,-1.84895 2.23958,-2.83854 l -5.85937,-8.07291 q -1.35416,-1.82292 -2.16146,-2.44791 -0.80729,-0.625 -1.6927,-0.625 -0.0521,0 -0.20834,0.026 -0.1302,0.026 -0.20833,0.026 v -1.77083 q 0.33854,0.026 0.98958,0.0521 3.07292,0.15625 4.24479,0.15625 0.96354,0 2.23958,-0.0521 1.30209,-0.0521 2.8125,-0.15625 v 1.77083 h -0.20833 q -0.88542,0 -1.32812,0.3125 -0.44271,0.28646 -0.44271,0.91146 0,0.91145 4.03645,6.24999 l 0.36459,0.44271 q 2.55208,-3.35937 3.51562,-4.84375 0.98958,-1.48437 0.98958,-2.0052 0,-0.57292 -0.36458,-0.78125 -0.36458,-0.23438 -1.53646,-0.28646 v -1.77083 q 1.22396,0.10416 2.31771,0.15625 1.09375,0.0521 1.97916,0.0521 1.1198,0 2.23959,-0.0521 1.11979,-0.0521 2.3177,-0.15625 l -0.026,1.74479 q -0.0521,0 -0.15625,0 -0.10416,-0.026 -0.26041,-0.026 -1.92709,0 -7.03125,6.43228 -1.69271,2.10938 -2.68229,3.30729 l 7.0052,9.34896 q 1.40625,1.90104 2.16146,2.42187 0.78125,0.49479 1.77083,0.49479 h 0.28646 v 1.82292 q -0.46875,-0.0261 -1.27604,-0.0521 -2.94271,-0.15625 -4.01041,-0.15625 -0.75521,0 -3.125,0.10417 -1.32813,0.0781 -2.03125,0.10417 l -0.026,-1.82292 h 0.3125 q 0.98958,0 1.43229,-0.26042 0.44271,-0.26041 0.44271,-0.85937 0,-0.625 -2.83854,-4.42708 -1.61459,-2.16146 -2.60417,-3.51562 -2.76041,3.5677 -4.03646,5.49478 -1.24999,1.90105 -1.24999,2.55209 0,0.54687 0.36458,0.78125 0.36458,0.23437 1.19791,0.23437 h 0.3125 v 1.82292 q -1.40624,-0.10417 -2.68229,-0.15625 -1.24999,-0.0521 -2.26562,-0.0521 -0.83333,0 -2.05729,0.0521 -1.19792,0.0521 -2.65625,0.15625 z"
         style="font-size:53.3333px;font-family:'Iowan Old Style';-inkscape-font-specification:'Iowan Old Style, Normal'"
         id="path562" />
    </g>
    <text
       xml:space="preserve"
       style="font-style:normal;font-variant:normal;font-weight:normal;font-stretch:normal;font-size:42.6667px;font-family:sans-serif;-inkscape-font-specification:'sans-serif, Normal';font-variant-ligatures:normal;font-variant-caps:normal;font-variant-numeric:normal;font-variant-east-asian:normal;fill:#000000"
       x="456.33261"
       y="526.5376"
       id="text193"><tspan
         sodipodi:role="line"
         id="tspan191"
         x="456.33261"
         y="526.5376" /></text>
    <text
       xml:space="preserve"
       style="font-style:normal;font-variant:normal;font-weight:normal;font-stretch:normal;font-size:42.6667px;font-family:'Iowan Old Style';-inkscape-font-specification:'Iowan Old Style, Normal';font-variant-ligatures:normal;font-variant-caps:normal;font-variant-numeric:normal;font-variant-east-asian:normal;fill:#000000"
       x="466.86337"
       y="480.90436"
       id="text247"><tspan
         sodipodi:role="line"
         id="tspan245"
         x="466.86337"
         y="480.90436" /></text>
    <text
       xml:space="preserve"
       style="font-style:normal;font-variant:normal;font-weight:normal;font-stretch:normal;font-size:53.3333px;font-family:'Iowan Old Style';-inkscape-font-specification:'Iowan Old Style, Normal';font-variant-ligatures:normal;font-variant-position:super;font-variant-caps:normal;font-variant-numeric:normal;font-variant-east-asian:normal;fill:#000000"
       x="677.82007"
       y="369.5903"
       id="text305"><tspan
         sodipodi:role="line"
         id="tspan303"
         x="677.82007"
         y="369.5903" /></text>
  </g>
</svg>
